<svg version="1.2" xmlns="http://www.w3.org/2000/svg" viewBox="0 0 129 124" width="129" height="124">
	<title>&lt;Group&gt;</title>
	<style>
		.s0 { fill: #ffffff } 
	</style>
	<g id="&lt;Group&gt;">
		<g id="&lt;Group&gt;">
			<path id="&lt;Path&gt;" class="s0" d="m67 0.7q12.2 1.2 23 6.8c2 1 3.1 2.7 2.9 5.1-0.1 2.3-1.4 3.9-3.6 4.4-1.2 0.3-2.8 0.1-4.1-0.4-3.7-1.2-7.4-3.1-11.2-4-12.1-3.1-23.7-1.8-34.9 3.7-9.3 4.7-16.7 11.6-21.8 20.9-6.6 12-8.4 24.8-4.6 38 5.3 18.3 17.1 30.6 35.5 35.6 20.9 5.6 38.6-0.4 52.8-16.7 6.8-7.8 10.4-17.2 11.4-27.4 0.5-4.5 0.3-9-0.5-13.5-0.5-3.3 1.2-5.9 4.3-6.4 2.9-0.5 5.5 1.5 6 4.8 3 20.8-2.6 38.9-17.5 53.9-10.6 10.6-23.6 16.5-38.6 17.5-18.6 1.2-34.7-4.8-47.9-18.1-10.6-10.7-16.6-23.7-17.6-38.6-1.2-18.6 4.9-34.8 18.1-48 10.7-10.6 23.7-16.3 38.6-17.6 3.2-0.2 6.5 0 9.7 0z"/>
			<path id="&lt;Path&gt;" class="s0" d="m115.8 6c4.6 4.6 8.7 8.7 12.7 12.7-23.4 23.5-46.9 47-70.3 70.5-11.7-11.8-23.5-23.6-35.2-35.3 4.1-4.1 8.2-8.2 12.6-12.6 7.4 7.5 14.9 15.1 22.4 22.7 19.4-19.4 38.6-38.7 57.8-58z"/>
		</g>
	</g>
</svg>