<svg xmlns="http://www.w3.org/2000/svg" viewBox="0 0 747.76 168"><defs><style>.cls-1{font-size:150px;fill:#79c143;font-family:Gilroy-ExtraBold, Gilroy;font-weight:800;}.cls-2{letter-spacing:0em;}.cls-3,.cls-6{fill:#6fcaf1;}.cls-4{fill:#7ac143;}.cls-4,.cls-5,.cls-6{fill-rule:evenodd;}.cls-5{fill:#f89938;}</style></defs><g id="Layer_2" data-name="Layer 2"><g id="Layer_1-2" data-name="Layer 1"><text class="cls-1" transform="translate(129.76 127.5)"><tspan class="cls-2">S</tspan><tspan x="87" y="0">PIN</tspan><tspan class="cls-3" x="318" y="0">DLIE</tspan></text><path class="cls-4" d="M81.44,3.81A64.54,64.54,0,1,1,0,85.19,60.91,60.91,0,1,0,81.44,3.81Z"/><polygon class="cls-5" points="24.52 52.75 57.73 18.12 61.67 29.45 35.82 56.41 24.52 52.75"/><path class="cls-6" d="M53.92,70.68a28.94,28.94,0,0,0,9.42,20.38,29.38,29.38,0,0,0,17,8.45c44.44,10.57,64.1,37,7.89-17a6.61,6.61,0,0,1-7.9-1,6.85,6.85,0,0,1-.2-9.63,6.77,6.77,0,0,1,9.64-.21A6.67,6.67,0,0,1,91,79.73C148.62,139,116.38,109,107,69.1A31.07,31.07,0,0,0,77.87,45.79L65.61,31.4,39.21,59Z"/></g></g></svg>