<svg xmlns="http://www.w3.org/2000/svg" viewBox="0 0 921.77 1015.98"><defs><style>.cls-1{fill:#79c143;}.cls-2{fill:#6fcaf1;}.cls-3{fill:#fff;}.cls-4{fill:#49b2d6;}.cls-5{fill:#eaaf88;}.cls-6{fill:#fdc296;}.cls-7{fill:#fedac0;}.cls-8{fill:#829ba6;}.cls-9{fill:#ccc;}</style></defs><g id="Layer_2" data-name="Layer 2"><g id="HANDs"><path class="cls-1" d="M775.16,422.31a288.54,288.54,0,0,1,25.07,31.17c28.82,41.23,33.37,74.6,29,110.71-2,16.19-11.44,23.39-11.44,48.58,0,44.35,64.33,85.35,57.3,103.12-5.36,13.55-37.59,15.47-47.54,28.61-1.24,1.64-2.08,7.89-2.84,9.6-2.86,6.41-3.65,19.7-.29,25.42,9.81,9.49.29,14-.07,17.57s9.74,7.76,4.62,17.06c-1,2.43-3.48,6.9-4.26,10.66-1.15,5.49-.21,15.15-.32,20.79-.22,11.64,10.5,16,7.66,30.74-.74,3.84-5.49,13.68-11.37,17-35.54,20.38-133.89-11.33-147.35,24.17s-10.58,96.61-10.58,96.61L440.37,1016s8.68-4.71,0-132.58c-8.21-120.81-84.65-131.28-118.24-236.35Z"/><path class="cls-1" d="M327.3,655.46c-6,2.48-12.25,4.84-18.92,7.06-120.71,40.21-291.8-43-306.66-217.92C-5.75,356.67,10.34,283.3,65,223.07Z"/><path class="cls-2" d="M590.66,564.35c-9.74-11.42-23.08-27-23-39.36.14-12.87.1-97.77,0-163.34h-5.86c0,65.55-.13,150.42-.26,163.27-.15,14.61,13.47,30.56,24.41,43.38,4.67,5.47,10.49,12.29,10.61,14.4.47,8.59.48,79.37-1.29,92.38-.58,4.31-12.15,12.63-22.36,20-18.08,13-38.56,27.71-38.55,43.11l1,82.61h5.76l-.71-82.41c0-12.49,20-26.83,36-38.37,13.36-9.59,23.91-17.17,24.85-24.09,1.86-13.72,1.81-84.7,1.32-93.52C602.49,578.39,598.43,573.45,590.66,564.35Z"/><path class="cls-2" d="M626.57,533.33c-16.05-11.52-36-25.86-36-38.34l0-133.34h-6.09l0,133.34c0,15.6,20.49,30.31,38.57,43.28,10.22,7.33,21.8,15.64,22.38,20,1.78,13,1.81,83.79,1.34,92.38-.11,2.11-5.92,8.93-10.6,14.41-10.93,12.83-24.54,28.79-24.38,43.39.12,11.25.24,75.44.23,112.36h5.39c0-36.93.59-101.15.47-112.43-.13-12.32,13.19-28,22.93-39.37,7.76-9.11,11.82-14.05,12-18,.48-8.83.48-79.79-1.39-93.53C650.49,550.49,639.94,542.92,626.57,533.33Z"/><path class="cls-2" d="M463.49,395.65c1.22,56.75,2.87,136.37,2.87,152.41,0,12.06-7.69,19.08-14.48,25.28-6,5.47-11.66,10.63-10.63,18.19,1.78,13.05,1.81,83.8,1.34,92.38-.11,2.11,5.86,4.31,6.08.33.48-8.81.49-79.77-1.39-93.53-.57-4.18,2.94-7.62,8.7-12.87,7.34-6.7,16.47-15,16.47-29.78,0-15.2-1.38-95.28-2.4-152.41Z"/><path class="cls-2" d="M521.42,728.56c-.19-61.7,0-258.68.08-366.91h-6.41c0,108.44,0,305.29.25,366.94l.08,24c0,2-.06,57-.33,68.13h6.57c.23-11.19-.15-65.84-.15-68.15Z"/><path class="cls-2" d="M490.62,380.79h-7.5c-.19,116.39-.51,363.5,0,440h7.46C490.07,745,490.41,499.35,490.62,380.79Z"/><path class="cls-3" d="M610.31,598.2a11.74,11.74,0,1,1-11.74-11.73A11.74,11.74,0,0,1,610.31,598.2Z"/><path class="cls-4" d="M498.54,410.11a11.74,11.74,0,1,1-11.74-11.73A11.74,11.74,0,0,1,498.54,410.11Z"/><circle class="cls-3" cx="518.37" cy="727.8" r="11.73" transform="translate(-362.8 579.71) rotate(-45)"/><path class="cls-4" d="M627,769.47a11.74,11.74,0,1,1-11.74-11.73A11.74,11.74,0,0,1,627,769.47Z"/><circle class="cls-4" cx="563.24" cy="459.51" r="11.73" transform="translate(-144.83 295.13) rotate(-26.14)"/><path class="cls-2" d="M578.08,616.47l6.45-5c-.59-1.07-1.21-2.13-1.87-3.17-.56-.88-1.13-1.73-1.72-2.57l-7.23,4a48.59,48.59,0,0,0-7.91-8.16l4.26-7.4a58,58,0,0,0-5.43-3.89L559.15,597a49.61,49.61,0,0,0-10.57-4.49l1.17-9a59.16,59.16,0,0,0-6.42-1.5l-2.66,8.83a50.63,50.63,0,0,0-11.61-.09l-2.51-9.22a56.87,56.87,0,0,0-6.43,1.11l1,9.63a50.35,50.35,0,0,0-10.84,4.4l-6-7.76c-.73.42-1.45.85-2.17,1.31-1.12.71-2.21,1.46-3.27,2.23l4.72,8.66a50.62,50.62,0,0,0-8.35,8.19l-8.57-4.8a56.29,56.29,0,0,0-3.6,5.4L490.6,616a49.68,49.68,0,0,0-4.53,10.69l-9.47-1.12a61.17,61.17,0,0,0-1.21,6.43l9,2.59a49.6,49.6,0,0,0-.08,11.49l-8.77,2.45A55.88,55.88,0,0,0,477,655l8.93-1a48.75,48.75,0,0,0,4.34,10.49l-6.88,5.35.62,1c1,1.57,2,3.07,3.16,4.51l7.6-4.15a49.11,49.11,0,0,0,8,7.94l-4.22,7.35a57.82,57.82,0,0,0,5.65,3.71l5.35-6.59a49.16,49.16,0,0,0,10.38,4.22l-1.09,8.33a61,61,0,0,0,6.7,1.31l2.42-8.08a49.94,49.94,0,0,0,11.2,0l2.2,8.09a58.46,58.46,0,0,0,6.73-1.34l-.86-8.35a50.16,50.16,0,0,0,10.35-4.25l5.13,6.57c.65-.38,1.29-.76,1.93-1.16q2-1.26,3.82-2.64l-4-7.3a50.26,50.26,0,0,0,8-7.8l7.18,4a58.31,58.31,0,0,0,3.87-5.7l-6.37-5.09a50.4,50.4,0,0,0,4.47-10.26l8,1a59.19,59.19,0,0,0,1.43-6.73l-7.71-2.2a48.87,48.87,0,0,0,.25-11.21l7.75-2.16a57.85,57.85,0,0,0-1.19-6.73l-8,.9A48.51,48.51,0,0,0,578.08,616.47Zm-28.57,49.18a30.48,30.48,0,1,1,9.07-42.4A30.68,30.68,0,0,1,549.51,665.65Z"/><path class="cls-1" d="M594.06,529.38l4.59-3.57c-.42-.76-.86-1.51-1.34-2.25s-.8-1.23-1.22-1.82L591,524.56a34.41,34.41,0,0,0-5.63-5.8l3-5.27a41.16,41.16,0,0,0-3.86-2.76l-3.89,4.8a35.12,35.12,0,0,0-7.53-3.19l.83-6.38a39.82,39.82,0,0,0-4.57-1.06l-1.88,6.28a35.64,35.64,0,0,0-8.26-.06l-1.79-6.55a39.73,39.73,0,0,0-4.57.8l.71,6.84a35.62,35.62,0,0,0-7.7,3.14l-4.32-5.51c-.51.3-1,.6-1.53.93-.8.5-1.58,1-2.33,1.59l3.37,6.16a35.6,35.6,0,0,0-5.93,5.83l-6.1-3.42a40.17,40.17,0,0,0-2.56,3.85l5.42,4.32a35.74,35.74,0,0,0-3.21,7.61l-6.73-.79a42,42,0,0,0-.86,4.58l6.43,1.83a35.43,35.43,0,0,0-.05,8.17l-6.23,1.75a43.29,43.29,0,0,0,1,4.6l6.35-.73a34.94,34.94,0,0,0,3.1,7.46l-4.89,3.81c.15.24.29.48.44.71.71,1.12,1.47,2.19,2.26,3.21l5.4-3a34.81,34.81,0,0,0,5.68,5.64l-3,5.23a41.38,41.38,0,0,0,4,2.63l3.8-4.69a35.58,35.58,0,0,0,7.39,3l-.77,5.92a40.56,40.56,0,0,0,4.77.92l1.71-5.74a35.91,35.91,0,0,0,8,0L568,587a43.65,43.65,0,0,0,4.79-1l-.62-5.94a35.69,35.69,0,0,0,7.36-3l3.65,4.67,1.37-.83c.94-.6,1.85-1.23,2.72-1.88l-2.84-5.19a35.33,35.33,0,0,0,5.7-5.56l5.11,2.86a40.76,40.76,0,0,0,2.75-4.06l-4.54-3.61a35.46,35.46,0,0,0,3.17-7.3l5.72.67a41.18,41.18,0,0,0,1-4.79l-5.48-1.56a35.39,35.39,0,0,0,.17-8l5.5-1.54a39.24,39.24,0,0,0-.85-4.78l-5.66.64A34.46,34.46,0,0,0,594.06,529.38Zm-20.27,35a21.67,21.67,0,1,1,6.41-30.16A21.82,21.82,0,0,1,573.79,564.38Z"/><path class="cls-5" d="M776.43,301.1c-7.22,14-24.73,39.51-27.68,43.59-3.16,4.36-22.35,22.74-28.08,26.8s-19.7,12.05-26,16.25c-19,12.63-15.18-5.94-6-14.67,3.69-3.51,3.58-3.91,16.11-10.89,7.08-6.59,11-7.44,19.63-20.3,13.9-23.6,14.08-25.85,15.35-33.42C742.43,292.18,776.43,301.1,776.43,301.1Z"/><path class="cls-2" d="M621.11,360.81l.24,1.05c.19.81.41,1.61.64,2.4l13-2a34.51,34.51,0,0,0,3.36,7.16l-9.82,8.4c.69,1,1.42,1.95,2.17,2.88l11-6.7a34.89,34.89,0,0,0,5.79,5.28l-5.73,11.27c1,.66,2.09,1.28,3.17,1.86l7.44-10.17a34.87,34.87,0,0,0,7.32,2.68l-1,12.3c1.22.22,2.46.39,3.7.52l2.91-11.94a34.36,34.36,0,0,0,7.76-.32l3.73,11.45,1.15-.26c.85-.2,1.69-.43,2.52-.67l-1.83-11.84a34.29,34.29,0,0,0,7.06-3.23l7.67,9c1.06-.72,2.09-1.48,3.07-2.27l-6.09-10a35,35,0,0,0,5.32-5.7l10.37,5.28c.71-1.07,1.38-2.15,2-3.27l-9.35-6.85a34.49,34.49,0,0,0,2.78-7.33l11.56.9c.27-1.24.48-2.5.64-3.77l-11.25-2.74a34.94,34.94,0,0,0-.23-7.9l11.09-3.62c-.16-.84-.33-1.69-.53-2.53-.1-.39-.19-.78-.3-1.16l-11.53,1.78a34.15,34.15,0,0,0-3.25-7.28l9-7.71q-1-1.57-2.13-3.06L694.4,328.8a34.72,34.72,0,0,0-5.86-5.51l5.49-10.8c-1-.7-2-1.36-3.09-2l-7.18,9.81a34.72,34.72,0,0,0-7.57-2.86l1-12.39c-1.17-.26-2.36-.47-3.56-.64l-3,12.13a34.57,34.57,0,0,0-8.11.29l-3.95-12.1c-.81.15-1.63.32-2.44.52l-1,.26,2,12.63a34.56,34.56,0,0,0-7.37,3.39l-8.44-9.87c-1,.65-1.94,1.33-2.87,2.05l6.77,11.14a34.24,34.24,0,0,0-5.46,6L628,324.87c-.65,1-1.26,2-1.84,3l10.64,7.79A34.49,34.49,0,0,0,634,343.2l-13.16-1c-.21,1.15-.39,2.31-.52,3.48l12.83,3.13a34.54,34.54,0,0,0,.38,8Zm41-30.67a21.4,21.4,0,1,1-15.86,25.79A21.4,21.4,0,0,1,662.09,330.14Z"/><path class="cls-6" d="M841.48,156.18S820.61,213,814,236.38c-1.87,6.59-13.56,64-23.18,78.74s-25,48-31.75,55.27c-5.11,5.53-32.77,29.88-41.39,33.82s-27.37,8.92-36.6,13.37c-25.78,12.42-23-4.72-8.53-20.17,4.73-5.08,9.07-9.08,27.58-14.69,10.92-7.35,10.78-13.23,25.29-33.71C735,331.7,734.84,315.75,734,304c-1.92-26.87-13.06-33.26-26.27-33.15-26.68.22-34.5,8.54-57,23.5-4.21,12.6-24.51,43.65-50.1,29.58,5.85-16.58,15.2-21,25.94-43,28.21-33.5,45.14-54.49,77.83-80.6,10.52-8.4,29.61-16.77,41.32-32.17,19.59-25.74,30.13-59.33,30.13-59.33Z"/><path class="cls-7" d="M685.5,414.58s-1.82-5.42-8.86-4.14-13.9,11-13.9,11l7.2-.28Z"/><path class="cls-7" d="M615.89,299.08c3,5.56,3.34,7,2.86,9.91S608.2,322.9,608.2,322.9l-7.14-.7S604.41,307.51,615.89,299.08Z"/><path class="cls-3" d="M920.19,56.58s-46.54,111.6-61.14,126.81-97.65-44.63-97.65-44.63L799.73.79Z"/><path class="cls-8" d="M921.75,57q-15.59,37.36-32.63,74.13c-7,15-14,30.05-22.49,44.19-2,3.36-4.36,8-7.9,10-3.78,2.15-8.94,1.4-13,.54-18.8-4-36.46-15.18-52.61-25.1-11.22-6.89-22.28-14.13-33-21.83-.16-.11-.41-.33-.34-.55q19.15-69,38.32-138c.25-.88,3.36,0,3.12.83l-19.17,69L769,117.62q-2.18,7.81-4.34,15.62c-.4,1.42-.79,2.84-1.19,4.26-.31,1.15-.06,1.65-.79,1.13C785,154.72,809,170.76,834.62,181c5.77,2.3,12.6,4.92,18.93,3.89,4.48-.73,7.07-5.77,9.24-9.24C871.38,162,878.18,147,885,132.39c11.78-25.13,22.92-50.6,33.61-76.22.37-.91,3.42.08,3.11.83Z"/><rect class="cls-3" x="773.38" y="115.84" width="54.26" height="116.97" transform="translate(271.29 799.73) rotate(-62.05)"/><path class="cls-8" d="M736.8,170.07,840.12,224.9l-2.09.15q12.71-24,25.43-47.93l.78,1.45L760.92,123.74l2.09-.14-25.44,47.93c-.57,1.08-3.58,0-2.87-1.31l25.44-47.93c.33-.62,1.63-.4,2.09-.15L865.55,177c.58.3,1.14.77.78,1.45l-25.44,47.94c-.33.62-1.63.39-2.09.15L735.48,171.68C733.59,170.68,735.31,169.28,736.8,170.07Z"/><path class="cls-4" d="M308.35,224.26c11.49,32.56,56.46,90.59,56.6,90.65s61.45,88,85.77,89.14c86.19,4,84.64,71.33,79.74,93.36-2.94,3.61-5.81,2.6-5.81,2.6s-34.19-75.81-80.92-41.17c-37.79,28-1,68.85,16.5,84,1.18,1.1-5.15,5.51-7.1,5.34C426,544.06,364.3,526,377.92,447.4c0,0,11.88-14.83-62.1-111C273.7,281.72,220.33,206,211.49,200.62c-1.86-1.12,3.6-18.59,10.16-23.14C238.71,165.63,306.61,219.32,308.35,224.26Z"/><path class="cls-1" d="M268.6,146.59C276.3,177.53,369.83,311,370,311.08s61.33,87.84,85.6,89c86,4,83.27,71.32,78.38,93.31-2.93,3.6-6,4.11-6,4.11s-32.75-77.3-79.39-42.73c-37.71,27.95-4.43,69.49,13.06,84.6,1.18,1.11-1.73,4.73-3.68,4.56-27.11-4.12-88.64-22.12-75.05-100.59,0,0,11.86-14.79-62-110.73-42-54.62-102.4-129.74-111.22-135.06C203,193.49,255.91,136.58,268.6,146.59Z"/><path class="cls-4" d="M431.09,537.31c-27.76-10.84-58.73-36-48.67-94.09l0-.13.08-.1c.1-.14,10.27-16.23-62-110.11-40.92-53.17-102.29-129.64-111.08-134.94-1.76-1.06-.24-4.17.26-5.19,6.67-13.53,44.91-52.39,57.75-47.37a5.54,5.54,0,0,1,1.44.82l.14.11,0,.16c7.49,30.13,98.29,160.15,101.2,164.2l.16.07v.17c2,2.91,54.55,77.41,80.41,87.52a15.13,15.13,0,0,0,4.73,1.11c14.14.66,26.67,3.08,37.25,7.22,54.43,21.27,43.06,80.06,41.59,86.7l0,.11-.07.1c-3,3.7-6.15,4.26-6.28,4.28l-.39.06-.15-.36c-.16-.39-16.71-38.85-42.45-48.91-12-4.68-24.15-2.53-36.18,6.39-10.87,8.06-16.6,17.9-17,29.24C431.09,504.78,447.6,526.53,462,539c.32.3.74,1,.17,2.23-.65,1.44-2.56,3.35-4.21,3.2A127.33,127.33,0,0,1,431.09,537.31Zm-47.7-93.81c-9.89,57.38,20.67,82.18,48.06,92.88a126.76,126.76,0,0,0,26.6,7c1,.09,2.61-1.36,3.18-2.62.22-.51.25-.91.08-1.07-14.53-12.56-31.23-34.61-30.45-55.36.44-11.67,6.3-21.77,17.44-30,12.32-9.13,24.81-11.32,37.13-6.51,24.71,9.66,41,44.92,42.84,49.06a11.3,11.3,0,0,0,5.22-3.74c1.55-7.09,12.35-64.6-41-85.44-10.48-4.09-22.91-6.5-36.94-7.15a16,16,0,0,1-5-1.18c-13.92-5.44-35.18-29.06-50.58-47.91-15.13-18.54-29.31-38.31-30.39-40.19-2.64-3.45-26.66-38.2-47.84-70.57-22.16-33.88-49.39-77.59-53.54-93.8a4.54,4.54,0,0,0-1.06-.58C255,141.58,217,180.19,210.62,193.2c-1,2.09-1.27,3.51-.64,3.88,9.3,5.61,72,84,111.35,135.19C392.05,424.14,384.44,441.83,383.39,443.5Z"/><path class="cls-4" d="M299.82,226.74c6.48,1.16,27.71,40.5,55.95,79.51,29.78,41.14,66.47,82,66.47,82,3.49,10.21-26,31.84-38.59,25.87-9.76-13.58-17.95-53.51-115.93-159.92C266.87,239.56,286.51,224.37,299.82,226.74Z"/><path class="cls-9" d="M413.39,488.3c-.17-15.25,8-29.32,24.18-41.83s32.14-16.91,47.49-13.18c30.1,7.31,45.93,45.28,45.93,45.28-.17-.37-17.26-36.25-46.41-43.32-14.72-3.57-30.13.74-45.78,12.82s-23.55,25.63-23.39,40.21c.31,28.79,31.91,52.43,32.23,52.66C447.64,540.94,413.71,518.08,413.39,488.3Z"/><path class="cls-6" d="M291.07,133.2,341.68,224S360.32,236.82,385.1,282c41,74.66,15.2,79.7,15.2,79.7s-13.78-11.14-20.86-5.28c-4.33,3.58-4.26,42.23-16.85,56.3-3.88,4.34-14.28-3.48-20.16-11.06s-1.37-25.22-1.37-25.22-6.21,21.28-23.86,3.38c-14.32-14.52-8.16-29.18-8.16-29.18s-2.93,20.91-17.76,10.22c-19.47-14-9.32-28.59-9.32-28.59s-5.52,8.46-9.85,6.54C264,335.14,258.37,319,258.37,319s-2.64-2-2.24-27.46,1.3-35.51,1.3-35.51l-65.5-74.42Z"/><path class="cls-3" d="M210,19.53l-57.9,148.19c20.28,21.69,40.57,43.24,51.06,54,15.78,16.16,95-78.74,95-78.74Z"/><path class="cls-8" d="M299.49,143,210.44,18.29l-1,2.48,42.68,59.78q15.32,21.45,30.62,42.89l10.1,14.13c.91,1.29,1.83,2.57,2.74,3.85a7.89,7.89,0,0,1,.67,1.06c-17.8,21.29-36.79,42-57.58,60.43A143.87,143.87,0,0,1,220,217.31c-3.93,2.47-9.57,6-14.45,4.84-2.1-.49-4.09-3.61-5.5-5.08q-4.25-4.4-8.45-8.83-10.14-10.67-20.21-21.41-9.48-10.08-18.93-20.18l-.84,2.14c1.29,1.37,2.57,2.75,3.86,4.13,13.41,14.33,26.84,28.67,40.43,42.84,3.14,3.27,6.32,8.06,11.1,8.88,4.48.77,9.14-1.55,12.94-3.62,19.23-10.5,35.23-28.44,50.13-44.16,10.14-10.7,20-21.69,29.48-33C299.75,143.64,299.63,143.2,299.49,143Z"/><rect class="cls-3" x="203.39" y="169.77" width="125.23" height="58.1" transform="matrix(0.76, -0.65, 0.65, 0.76, -65.31, 221.54)"/><path class="cls-8" d="M331.14,178.92l-94.95,81.66,2.5.76-37.88-44c0,.47.05,1,.07,1.42l94.95-81.66-2.5-.75,37.88,44c1,1.13,3.91,1.06,2.43-.66l-37.89-44.05c-.46-.54-1.78-1.37-2.49-.76l-94.95,81.66c-.47.4-.28,1,.07,1.43l37.89,44c.46.55,1.78,1.38,2.5.76l94.94-81.66C334.92,180.06,332.16,178,331.14,178.92Z"/></g></g></svg>